<svg xmlns="http://www.w3.org/2000/svg" xmlns:xlink="http://www.w3.org/1999/xlink" xmlns:lucid="lucid" width="1141" height="694"><g transform="translate(-1343 -397)" lucid:page-tab-id="0_0"><path d="M-1696 0h5152v2656h-5152z" fill="#fff"/><path d="M1400 446c0-3.3 2.7-6 6-6h428c3.3 0 6 2.7 6 6v244c0 3.3-2.7 6-6 6h-428c-3.3 0-6-2.7-6-6z" fill="#fff"/><path d="M1400 446c0-3.3 2.7-6 6-6h428c3.3 0 6 2.7 6 6v244c0 3.3-2.7 6-6 6h-428c-3.3 0-6-2.7-6-6zM1400 480h440M1620 480v216" stroke="#000" stroke-width="3" fill="none"/><use xlink:href="#a" transform="matrix(1,0,0,1,1410,440) translate(189.51111111111112 26.933333333333334)"/><use xlink:href="#b" transform="matrix(1,0,0,1,1405,482.5) translate(0 22.433333333333334)"/><use xlink:href="#c" transform="matrix(1,0,0,1,1625,482.5) translate(0 22.433333333333334)"/><use xlink:href="#d" transform="matrix(1,0,0,1,1625,482.5) translate(97.08888888888889 22.433333333333334)"/><use xlink:href="#e" transform="matrix(1,0,0,1,1405,518.5) translate(0 22.433333333333334)"/><use xlink:href="#f" transform="matrix(1,0,0,1,1625,518.5) translate(0 22.433333333333334)"/><use xlink:href="#g" transform="matrix(1,0,0,1,1625,518.5) translate(127.35555555555558 22.433333333333334)"/><use xlink:href="#h" transform="matrix(1,0,0,1,1405,554.5) translate(0 22.433333333333334)"/><use xlink:href="#i" transform="matrix(1,0,0,1,1625,554.5) translate(0 22.433333333333334)"/><use xlink:href="#g" transform="matrix(1,0,0,1,1625,554.5) translate(45.93333333333334 22.433333333333334)"/><use xlink:href="#j" transform="matrix(1,0,0,1,1405,590.5) translate(0 22.433333333333334)"/><use xlink:href="#k" transform="matrix(1,0,0,1,1625,590.5) translate(0 22.433333333333334)"/><use xlink:href="#l" transform="matrix(1,0,0,1,1625,590.5) translate(64.42222222222223 22.433333333333334)"/><use xlink:href="#m" transform="matrix(1,0,0,1,1625,590.5) translate(87.42222222222223 22.433333333333334)"/><use xlink:href="#n" transform="matrix(1,0,0,1,1625,590.5) translate(133.53333333333336 22.433333333333334)"/><use xlink:href="#g" transform="matrix(1,0,0,1,1625,590.5) translate(172.42222222222225 22.433333333333334)"/><use xlink:href="#o" transform="matrix(1,0,0,1,1405,626.5) translate(0 22.433333333333334)"/><use xlink:href="#p" transform="matrix(1,0,0,1,1625,626.5) translate(0 22.433333333333334)"/><use xlink:href="#g" transform="matrix(1,0,0,1,1625,626.5) translate(126.8 22.433333333333334)"/><use xlink:href="#q" transform="matrix(1,0,0,1,1405,662.5) translate(0 22.433333333333334)"/><use xlink:href="#p" transform="matrix(1,0,0,1,1625,662.5) translate(0 22.433333333333334)"/><use xlink:href="#g" transform="matrix(1,0,0,1,1625,662.5) translate(126.8 22.433333333333334)"/><path d="M1980 464c0-3.3 2.7-6 6-6h428c3.3 0 6 2.7 6 6v208c0 3.3-2.7 6-6 6h-428c-3.3 0-6-2.7-6-6z" fill="#fff"/><path d="M1980 464c0-3.3 2.7-6 6-6h428c3.3 0 6 2.7 6 6v208c0 3.3-2.7 6-6 6h-428c-3.3 0-6-2.7-6-6zM1980 498h440M2200 498v180" stroke="#000" stroke-width="3" fill="none"/><use xlink:href="#r" transform="matrix(1,0,0,1,1990,458) translate(165.25555555555556 26.933333333333334)"/><use xlink:href="#b" transform="matrix(1,0,0,1,1985,500.5) translate(0 22.433333333333334)"/><use xlink:href="#c" transform="matrix(1,0,0,1,2205,500.5) translate(0 22.433333333333334)"/><use xlink:href="#d" transform="matrix(1,0,0,1,2205,500.5) translate(97.08888888888889 22.433333333333334)"/><use xlink:href="#h" transform="matrix(1,0,0,1,1985,536.5) translate(0 22.433333333333334)"/><use xlink:href="#f" transform="matrix(1,0,0,1,2205,536.5) translate(0 22.433333333333334)"/><use xlink:href="#g" transform="matrix(1,0,0,1,2205,536.5) translate(127.35555555555558 22.433333333333334)"/><use xlink:href="#j" transform="matrix(1,0,0,1,1985,572.5) translate(0 22.433333333333334)"/><use xlink:href="#k" transform="matrix(1,0,0,1,2205,572.5) translate(0 22.433333333333334)"/><use xlink:href="#l" transform="matrix(1,0,0,1,2205,572.5) translate(64.42222222222223 22.433333333333334)"/><use xlink:href="#m" transform="matrix(1,0,0,1,2205,572.5) translate(87.42222222222223 22.433333333333334)"/><use xlink:href="#n" transform="matrix(1,0,0,1,2205,572.5) translate(133.53333333333336 22.433333333333334)"/><use xlink:href="#g" transform="matrix(1,0,0,1,2205,572.5) translate(172.42222222222225 22.433333333333334)"/><use xlink:href="#o" transform="matrix(1,0,0,1,1985,608.5) translate(0 22.433333333333334)"/><use xlink:href="#p" transform="matrix(1,0,0,1,2205,608.5) translate(0 22.433333333333334)"/><use xlink:href="#g" transform="matrix(1,0,0,1,2205,608.5) translate(126.8 22.433333333333334)"/><use xlink:href="#q" transform="matrix(1,0,0,1,1985,644.5) translate(0 22.433333333333334)"/><use xlink:href="#p" transform="matrix(1,0,0,1,2205,644.5) translate(0 22.433333333333334)"/><use xlink:href="#g" transform="matrix(1,0,0,1,2205,644.5) translate(126.8 22.433333333333334)"/><path d="M1700 786c0-3.3 2.7-6 6-6h408c3.3 0 6 2.7 6 6v244c0 3.3-2.7 6-6 6h-408c-3.3 0-6-2.7-6-6z" fill="#fff"/><path d="M1700 786c0-3.3 2.7-6 6-6h408c3.3 0 6 2.7 6 6v244c0 3.3-2.7 6-6 6h-408c-3.3 0-6-2.7-6-6zM1700 820h420M1910 820v216" stroke="#000" stroke-width="3" fill="none"/><use xlink:href="#s" transform="matrix(1,0,0,1,1710,780) translate(178.8 26.933333333333334)"/><use xlink:href="#b" transform="matrix(1,0,0,1,1705,822.5) translate(0 22.433333333333334)"/><use xlink:href="#c" transform="matrix(1,0,0,1,1915,822.5) translate(0 22.433333333333334)"/><use xlink:href="#d" transform="matrix(1,0,0,1,1915,822.5) translate(97.08888888888889 22.433333333333334)"/><use xlink:href="#t" transform="matrix(1,0,0,1,1705,858.5) translate(0 22.433333333333334)"/><use xlink:href="#u" transform="matrix(1,0,0,1,1915,858.5) translate(0 22.433333333333334)"/><use xlink:href="#v" transform="matrix(1,0,0,1,1915,858.5) translate(75.97777777777779 22.433333333333334)"/><use xlink:href="#g" transform="matrix(1,0,0,1,1915,858.5) translate(133.2888888888889 22.433333333333334)"/><use xlink:href="#w" transform="matrix(1,0,0,1,1705,894.5) translate(0 22.433333333333334)"/><g><use xlink:href="#f" transform="matrix(1,0,0,1,1915,894.5) translate(0 22.433333333333334)"/><use xlink:href="#g" transform="matrix(1,0,0,1,1915,894.5) translate(127.35555555555558 22.433333333333334)"/></g><g><use xlink:href="#x" transform="matrix(1,0,0,1,1705,930.5) translate(0 22.433333333333334)"/></g><g><use xlink:href="#y" transform="matrix(1,0,0,1,1915,930.5) translate(0 22.433333333333334)"/><use xlink:href="#v" transform="matrix(1,0,0,1,1915,930.5) translate(58.95555555555555 22.433333333333334)"/><use xlink:href="#g" transform="matrix(1,0,0,1,1915,930.5) translate(116.26666666666667 22.433333333333334)"/></g><g><use xlink:href="#o" transform="matrix(1,0,0,1,1705,966.5) translate(0 22.433333333333334)"/></g><g><use xlink:href="#p" transform="matrix(1,0,0,1,1915,966.5) translate(0 22.433333333333334)"/><use xlink:href="#g" transform="matrix(1,0,0,1,1915,966.5) translate(126.8 22.433333333333334)"/></g><g><use xlink:href="#q" transform="matrix(1,0,0,1,1705,1002.5) translate(0 22.433333333333334)"/></g><g><use xlink:href="#p" transform="matrix(1,0,0,1,1915,1002.5) translate(0 22.433333333333334)"/><use xlink:href="#g" transform="matrix(1,0,0,1,1915,1002.5) translate(126.8 22.433333333333334)"/></g><path d="M1698.5 910H1626c-3.3 0-6-2.7-6-6V697.5" stroke="#000" stroke-width="3" fill="none"/><path fill="#fff"/><path d="M1680 920h-3v-20h3zM1631.34 698.84L1620 721.52l-11.34-22.68 2.68-1.34 8.66 17.32 8.66-17.32z"/><path d="M1630 728.17l-.5 3.16-1.43 2.75-2.16 2.16-2.74 1.42-3.16.5-3.16-.5-2.75-1.42-2.17-2.16-1.42-2.75-.5-3.16.5-3.16 1.43-2.74 2.16-2.16 2.74-1.42 3.16-.5 3.16.5 2.75 1.42 2.17 2.16 1.42 2.75.5 3.17z" fill="#fff"/><path d="M1623.64 717.24l3.16 1.63 2.5 2.5 1.63 3.16.55 3.4-1.48.24 1.48.24-.55 3.4-1.63 3.17-2.5 2.5-3.16 1.63-3.64.6-3.64-.6-3.16-1.63-2.5-2.5-1.63-3.16-.6-3.63.6-3.64 1.63-3.16 2.5-2.5 3.16-1.63 3.64-.6zm-6.32 2.88l-2.33 1.2-1.85 1.84-1.2 2.33-.43 2.67.43 2.7 1.2 2.3 1.84 1.85 2.32 1.2 2.68.43 2.68-.43 2.33-1.2 1.85-1.84 1.2-2.32.43-2.7-.43-2.67-1.2-2.34-1.84-1.83-2.32-1.2-2.68-.44z"/><path d="M2121.5 910h72.5c3.3 0 6-2.7 6-6V679.5" stroke="#000" stroke-width="3" fill="none"/><path fill="#fff"/><path d="M2143 920h-3v-20h3zM2211.34 680.84L2200 703.52l-11.34-22.68 2.68-1.34 8.66 17.32 8.66-17.32z"/><path d="M2210 710.17l-.5 3.16-1.43 2.75-2.16 2.16-2.74 1.42-3.16.5-3.16-.5-2.75-1.42-2.17-2.16-1.42-2.75-.5-3.16.5-3.16 1.43-2.74 2.16-2.16 2.74-1.42 3.16-.5 3.16.5 2.75 1.42 2.17 2.16 1.42 2.75.5 3.17z" fill="#fff"/><path d="M2203.64 699.24l3.16 1.63 2.5 2.5 1.63 3.16.55 3.4-1.48.24 1.48.24-.55 3.4-1.63 3.17-2.5 2.5-3.16 1.63-3.64.6-3.64-.6-3.16-1.63-2.5-2.5-1.63-3.16-.6-3.63.6-3.64 1.63-3.16 2.5-2.5 3.16-1.63 3.64-.6zm-6.32 2.88l-2.33 1.2-1.85 1.84-1.2 2.33-.43 2.67.43 2.7 1.2 2.3 1.84 1.85 2.32 1.2 2.68.43 2.68-.43 2.33-1.2 1.85-1.84 1.2-2.32.43-2.7-.43-2.67-1.2-2.34-1.84-1.83-2.32-1.2-2.68-.44z"/><defs><path d="M547-478c0 191-151 258-350 237V0H60v-693c55-11 127-17 193-17 172 0 294 58 294 232zm-144-2c0-106-104-123-206-107v227c108 15 206-7 206-120" id="z"/><path d="M269 14C107 14 36-88 33-250c-2-161 81-264 236-264 162 0 233 102 235 264 2 161-80 264-235 264zm0-418c-78 0-104 61-102 154 1 82 21 154 102 154 80 0 101-62 101-154 0-83-21-154-101-154" id="A"/><path d="M200-90c53 9 88-53 47-80-80-53-213-55-211-192 2-102 65-152 171-152 67 0 135 17 175 39l-29 94c-31-11-84-29-129-29-54 0-78 51-41 74 81 50 213 53 211 187-2 110-75 163-194 163C133 14 65-7 25-31l36-97c31 17 89 40 139 38" id="B"/><path d="M208 14C110 12 74-35 74-138v-252H5v-110h69v-94l130-37v131h122v110H204v192c2 58 2 97 50 97 30 0 44-6 67-16l23 100c-34 16-86 31-136 31" id="C"/><g id="a"><use transform="matrix(0.022222222222222223,0,0,0.022222222222222223,0,0)" xlink:href="#z"/><use transform="matrix(0.022222222222222223,0,0,0.022222222222222223,11.911111111111111,0)" xlink:href="#A"/><use transform="matrix(0.022222222222222223,0,0,0.022222222222222223,23.844444444444445,0)" xlink:href="#B"/><use transform="matrix(0.022222222222222223,0,0,0.022222222222222223,33.22222222222222,0)" xlink:href="#C"/></g><path d="M94-500h80V0H94v-500zm38-99c-31 0-55-23-55-53s24-56 55-56 58 26 58 56-28 53-58 53" id="D"/><path d="M276-509c50 0 69 4 105 17v-208h80v528c1 67-1 118 10 174h-54l-20-71h-4c-25 44-78 82-147 81C97 8 50-86 49-248c-1-159 77-260 227-261zM132-248c1 104 26 190 127 190 75 0 108-41 122-107v-248c-27-20-53-26-102-26-105 0-148 72-147 191" id="E"/><g id="b"><use transform="matrix(0.022222222222222223,0,0,0.022222222222222223,0,0)" xlink:href="#D"/><use transform="matrix(0.022222222222222223,0,0,0.022222222222222223,5.955555555555556,0)" xlink:href="#E"/></g><path d="M63-93c59 36 240 71 234-43-5-91-121-82-179-124-34-24-62-54-62-113 0-97 59-138 155-139 66-1 112 13 154 32l-19 66c-52-26-221-63-210 39 9 83 124 74 178 118 33 27 64 57 63 118-3 103-68 149-174 151C134 13 81-3 39-25" id="F"/><path d="M293-58c43 0 98-19 119-40l30 58C404-9 338 12 270 12 112 10 51-92 49-250c-1-159 70-258 220-262 155-4 211 110 184 270H132c0 116 45 184 161 184zm88-247c1-92-30-137-111-137-89 0-129 46-137 137h248" id="G"/><path d="M292-509c59 0 132 14 168 31v678h-80V-50h-4c-28 40-63 63-131 62C97 10 50-87 49-248c-1-167 80-260 243-261zM132-249c2 104 25 191 127 191 75 0 106-40 121-106v-256c-25-13-59-19-102-19-104 0-147 74-146 190" id="H"/><path d="M232 12C103 12 68-68 69-198v-302h80v285c0 87 12 158 98 157 78-1 111-51 135-108v-334h80c4 166-10 350 11 500h-55l-20-79h-5c-31 50-80 91-161 91" id="I"/><path d="M313-512c130 0 165 79 165 210V0h-80v-285c-2-94-16-155-105-157-72-1-118 46-136 100V0H77v-500h56l15 61h4c32-42 86-73 161-73" id="J"/><path d="M281-58c46 1 86-17 111-36l26 61c-37 28-94 45-157 45C104 12 53-93 49-250c-5-188 108-294 299-254 22 5 42 12 60 21l-23 69c-29-16-66-28-111-28-95 0-142 64-142 192 0 110 39 189 149 192" id="K"/><path d="M113 7C77 18 49-5 49-43c0-32 25-54 57-54 93 0 79 148 34 195-20 21-44 41-73 51l-25-39c41-14 69-55 71-103" id="L"/><g id="c"><use transform="matrix(0.022222222222222223,0,0,0.022222222222222223,0,0)" xlink:href="#F"/><use transform="matrix(0.022222222222222223,0,0,0.022222222222222223,9.355555555555556,0)" xlink:href="#G"/><use transform="matrix(0.022222222222222223,0,0,0.022222222222222223,20.4,0)" xlink:href="#H"/><use transform="matrix(0.022222222222222223,0,0,0.022222222222222223,32.33333333333333,0)" xlink:href="#I"/><use transform="matrix(0.022222222222222223,0,0,0.022222222222222223,44.3111111111111,0)" xlink:href="#G"/><use transform="matrix(0.022222222222222223,0,0,0.022222222222222223,55.599999999999994,0)" xlink:href="#J"/><use transform="matrix(0.022222222222222223,0,0,0.022222222222222223,67.75555555555555,0)" xlink:href="#K"/><use transform="matrix(0.022222222222222223,0,0,0.022222222222222223,77.26666666666667,0)" xlink:href="#G"/><use transform="matrix(0.022222222222222223,0,0,0.022222222222222223,88.55555555555556,0)" xlink:href="#L"/></g><path d="M262 12c-51 0-69-5-105-20v208H77v-700h55l15 60h4c28-43 75-72 143-72 149 0 198 89 198 252 0 161-73 272-230 272zm147-273c-1-103-28-181-130-181-75 0-107 41-122 107v248c27 20 53 30 102 29 104-2 152-86 150-203" id="M"/><path d="M203-225h-46V0H77v-700h80v426l41-14 155-212h93L293-299l-41 33 50 40L469 0h-99" id="N"/><g id="d"><use transform="matrix(0.022222222222222223,0,0,0.022222222222222223,0,0)" xlink:href="#M"/><use transform="matrix(0.022222222222222223,0,0,0.022222222222222223,12.022222222222222,0)" xlink:href="#N"/></g><path d="M200 12C109 10 89-39 89-138v-292H11v-70h78v-99l80-23v122h136v70H169v277c1 59 6 93 57 95 38 1 55-9 84-20l18 61c-35 17-77 30-128 29" id="O"/><path d="M189 12C123 10 86-25 86-100v-600h80v577c-10 72 59 74 108 54l9 63c-18 10-66 18-94 18" id="P"/><g id="e"><use transform="matrix(0.022222222222222223,0,0,0.022222222222222223,0,0)" xlink:href="#O"/><use transform="matrix(0.022222222222222223,0,0,0.022222222222222223,7.533333333333333,0)" xlink:href="#D"/><use transform="matrix(0.022222222222222223,0,0,0.022222222222222223,13.488888888888889,0)" xlink:href="#O"/><use transform="matrix(0.022222222222222223,0,0,0.022222222222222223,21.022222222222222,0)" xlink:href="#P"/><use transform="matrix(0.022222222222222223,0,0,0.022222222222222223,27.511111111111113,0)" xlink:href="#G"/></g><path d="M101-500c50 129 110 248 149 388 32-143 91-259 137-388h86L260 11h-34L9-500h92" id="Q"/><path d="M422-354c0 120-19 253 8 356h-59l-21-70h-5C315-22 265 8 189 8 98 8 39-43 39-134c0-147 152-157 302-151 10-93 1-159-99-153-57 4-110 14-148 35l-25-60c48-30 118-45 194-45 108-1 159 51 159 154zM122-142c-2 47 40 81 89 80 67-1 109-32 130-79v-83c-95-3-214-10-219 82" id="R"/><path d="M152-439c26-60 97-88 178-61l-17 77c-74-29-156 5-156 73V0H77v-500h56l15 61h4" id="S"/><path d="M314-512c131 0 164 78 164 210V0h-80v-285c1-91-15-157-107-157-66 0-134 50-134 109V0H77v-700h80v256h4c35-40 79-68 153-68" id="T"/><path d="M140-243c0 179 54 323 138 426l-51 37C82 82 14-227 98-482c29-88 73-167 132-230l48 35c-85 108-138 247-138 434" id="U"/><path d="M267-712c112 0 179 61 179 171 0 193-130 309-219 431l-49 43v4c78-19 187-8 282-11V0H62v-29c108-116 222-246 285-410 36-94 12-203-97-203-54 0-105 27-136 51l-33-57c43-37 108-64 186-64" id="V"/><path d="M98-76c34 13 66 18 115 18 93 0 159-58 159-156 0-100-67-145-167-145l-84 5v-346h312v74H196v199c155-16 256 60 256 208C452-22 266 51 77-8" id="W"/><path d="M140-249c0-178-54-323-138-426l51-37C198-574 266-265 182-10c-29 88-73 167-132 230L2 185C87 77 140-63 140-249" id="X"/><g id="f"><use transform="matrix(0.022222222222222223,0,0,0.022222222222222223,0,0)" xlink:href="#Q"/><use transform="matrix(0.022222222222222223,0,0,0.022222222222222223,10.711111111111112,0)" xlink:href="#R"/><use transform="matrix(0.022222222222222223,0,0,0.022222222222222223,21.733333333333334,0)" xlink:href="#S"/><use transform="matrix(0.022222222222222223,0,0,0.022222222222222223,29.28888888888889,0)" xlink:href="#K"/><use transform="matrix(0.022222222222222223,0,0,0.022222222222222223,39.31111111111112,0)" xlink:href="#T"/><use transform="matrix(0.022222222222222223,0,0,0.022222222222222223,51.466666666666676,0)" xlink:href="#R"/><use transform="matrix(0.022222222222222223,0,0,0.022222222222222223,62.488888888888894,0)" xlink:href="#S"/><use transform="matrix(0.022222222222222223,0,0,0.022222222222222223,70.04444444444445,0)" xlink:href="#U"/><use transform="matrix(0.022222222222222223,0,0,0.022222222222222223,76.26666666666668,0)" xlink:href="#V"/><use transform="matrix(0.022222222222222223,0,0,0.022222222222222223,88.3777777777778,0)" xlink:href="#W"/><use transform="matrix(0.022222222222222223,0,0,0.022222222222222223,100.48888888888891,0)" xlink:href="#W"/><use transform="matrix(0.022222222222222223,0,0,0.022222222222222223,112.60000000000002,0)" xlink:href="#X"/><use transform="matrix(0.022222222222222223,0,0,0.022222222222222223,118.82222222222225,0)" xlink:href="#L"/></g><g id="g"><use transform="matrix(0.022222222222222223,0,0,0.022222222222222223,0,0)" xlink:href="#J"/><use transform="matrix(0.022222222222222223,0,0,0.022222222222222223,12.155555555555557,0)" xlink:href="#J"/></g><path d="M268 12C112 12 51-93 49-250c-1-158 69-262 219-262 156 0 217 105 219 262 1 158-69 262-219 262zm136-262c0-105-32-190-136-192-91-2-136 63-136 192 0 105 33 189 136 192 91 2 136-63 136-192" id="Y"/><g id="h"><use transform="matrix(0.022222222222222223,0,0,0.022222222222222223,0,0)" xlink:href="#K"/><use transform="matrix(0.022222222222222223,0,0,0.022222222222222223,9.511111111111111,0)" xlink:href="#Y"/><use transform="matrix(0.022222222222222223,0,0,0.022222222222222223,21.422222222222224,0)" xlink:href="#J"/><use transform="matrix(0.022222222222222223,0,0,0.022222222222222223,33.57777777777778,0)" xlink:href="#O"/><use transform="matrix(0.022222222222222223,0,0,0.022222222222222223,40.86666666666667,0)" xlink:href="#G"/><use transform="matrix(0.022222222222222223,0,0,0.022222222222222223,52.15555555555556,0)" xlink:href="#J"/><use transform="matrix(0.022222222222222223,0,0,0.022222222222222223,64.31111111111112,0)" xlink:href="#O"/></g><path d="M208-256L40-500h98c42 64 91 121 123 195 33-74 83-131 126-195h90L308-260 487 0h-95c-46-70-100-132-136-212-37 80-92 142-139 212H28" id="Z"/><g id="i"><use transform="matrix(0.022222222222222223,0,0,0.022222222222222223,0,0)" xlink:href="#O"/><use transform="matrix(0.022222222222222223,0,0,0.022222222222222223,7.288888888888889,0)" xlink:href="#G"/><use transform="matrix(0.022222222222222223,0,0,0.022222222222222223,18.066666666666666,0)" xlink:href="#Z"/><use transform="matrix(0.022222222222222223,0,0,0.022222222222222223,29.511111111111113,0)" xlink:href="#O"/><use transform="matrix(0.022222222222222223,0,0,0.022222222222222223,37.4,0)" xlink:href="#L"/></g><path d="M0 135h408v70H0v-70" id="aa"/><g id="j"><use transform="matrix(0.022222222222222223,0,0,0.022222222222222223,0,0)" xlink:href="#I"/><use transform="matrix(0.022222222222222223,0,0,0.022222222222222223,11.977777777777778,0)" xlink:href="#F"/><use transform="matrix(0.022222222222222223,0,0,0.022222222222222223,21.333333333333336,0)" xlink:href="#G"/><use transform="matrix(0.022222222222222223,0,0,0.022222222222222223,32.62222222222223,0)" xlink:href="#S"/><use transform="matrix(0.022222222222222223,0,0,0.022222222222222223,40.177777777777784,0)" xlink:href="#aa"/><use transform="matrix(0.022222222222222223,0,0,0.022222222222222223,49.244444444444454,0)" xlink:href="#D"/><use transform="matrix(0.022222222222222223,0,0,0.022222222222222223,55.20000000000001,0)" xlink:href="#E"/></g><path d="M247 9C183 10 114-8 77-29v-671h80v249h4c28-36 76-61 136-61 144 0 194 97 194 254C491-91 407 8 247 9zm161-268c-2-100-27-183-125-183-74 0-109 46-126 107v252c24 14 63 22 102 22 105 0 151-78 149-198" id="ab"/><path d="M290-509c71-1 121 13 170 30V23c0 132-72 189-204 189-71 0-115-8-159-27l21-68c37 13 69 25 124 25 122 0 148-66 139-191h-4c-28 39-65 61-132 60C95 9 50-86 49-248c-1-166 78-261 241-261zM132-249c2 104 25 190 127 190 75 0 106-39 121-105v-256c-27-13-61-19-102-19-103 0-147 74-146 190" id="ac"/><g id="k"><use transform="matrix(0.022222222222222223,0,0,0.022222222222222223,0,0)" xlink:href="#ab"/><use transform="matrix(0.022222222222222223,0,0,0.022222222222222223,12,0)" xlink:href="#D"/><use transform="matrix(0.022222222222222223,0,0,0.022222222222222223,17.955555555555556,0)" xlink:href="#ac"/><use transform="matrix(0.022222222222222223,0,0,0.022222222222222223,29.88888888888889,0)" xlink:href="#D"/><use transform="matrix(0.022222222222222223,0,0,0.022222222222222223,35.84444444444445,0)" xlink:href="#J"/><use transform="matrix(0.022222222222222223,0,0,0.022222222222222223,48.000000000000014,0)" xlink:href="#O"/><use transform="matrix(0.022222222222222223,0,0,0.022222222222222223,55.88888888888889,0)" xlink:href="#L"/></g><path d="M251-636c-75-3-71 63-71 136h133v70H180V0h-80v-430H22v-70h78c-5-124 22-209 143-206 47 1 73 5 108 19l-18 67c-26-12-50-15-82-16" id="ad"/><g id="l"><use transform="matrix(0.022222222222222223,0,0,0.022222222222222223,0,0)" xlink:href="#ad"/><use transform="matrix(0.022222222222222223,0,0,0.022222222222222223,7.0888888888888895,0)" xlink:href="#N"/></g><g id="m"><use transform="matrix(0.022222222222222223,0,0,0.022222222222222223,0,0)" xlink:href="#I"/><use transform="matrix(0.022222222222222223,0,0,0.022222222222222223,11.977777777777778,0)" xlink:href="#F"/><use transform="matrix(0.022222222222222223,0,0,0.022222222222222223,21.333333333333336,0)" xlink:href="#G"/><use transform="matrix(0.022222222222222223,0,0,0.022222222222222223,32.62222222222223,0)" xlink:href="#S"/></g><g id="n"><use transform="matrix(0.022222222222222223,0,0,0.022222222222222223,0,0)" xlink:href="#U"/><use transform="matrix(0.022222222222222223,0,0,0.022222222222222223,6.222222222222222,0)" xlink:href="#D"/><use transform="matrix(0.022222222222222223,0,0,0.022222222222222223,12.177777777777779,0)" xlink:href="#E"/><use transform="matrix(0.022222222222222223,0,0,0.022222222222222223,24.133333333333333,0)" xlink:href="#X"/><use transform="matrix(0.022222222222222223,0,0,0.022222222222222223,30.355555555555558,0)" xlink:href="#L"/></g><g id="o"><use transform="matrix(0.022222222222222223,0,0,0.022222222222222223,0,0)" xlink:href="#K"/><use transform="matrix(0.022222222222222223,0,0,0.022222222222222223,10.022222222222222,0)" xlink:href="#S"/><use transform="matrix(0.022222222222222223,0,0,0.022222222222222223,17.57777777777778,0)" xlink:href="#G"/><use transform="matrix(0.022222222222222223,0,0,0.022222222222222223,28.866666666666667,0)" xlink:href="#R"/><use transform="matrix(0.022222222222222223,0,0,0.022222222222222223,39.888888888888886,0)" xlink:href="#O"/><use transform="matrix(0.022222222222222223,0,0,0.022222222222222223,47.17777777777777,0)" xlink:href="#G"/><use transform="matrix(0.022222222222222223,0,0,0.022222222222222223,58.46666666666666,0)" xlink:href="#E"/><use transform="matrix(0.022222222222222223,0,0,0.022222222222222223,70.42222222222222,0)" xlink:href="#aa"/><use transform="matrix(0.022222222222222223,0,0,0.022222222222222223,79.48888888888888,0)" xlink:href="#R"/><use transform="matrix(0.022222222222222223,0,0,0.022222222222222223,90.5111111111111,0)" xlink:href="#O"/></g><path d="M568-442c-74 2-103 45-118 108V0h-80v-283c0-87-6-159-94-159-65 0-104 47-119 98V0H77v-500h56l15 61h4c37-41 77-74 155-73 72 1 105 26 126 83 28-48 82-81 155-83 130-3 155 82 155 212V0h-80v-301c1-83-12-143-95-141" id="ae"/><path d="M42-70l231-318 42-42H42v-70h356v70L165-109l-41 39h274V0H42v-70" id="af"/><g id="p"><use transform="matrix(0.022222222222222223,0,0,0.022222222222222223,0,0)" xlink:href="#O"/><use transform="matrix(0.022222222222222223,0,0,0.022222222222222223,7.533333333333333,0)" xlink:href="#D"/><use transform="matrix(0.022222222222222223,0,0,0.022222222222222223,13.488888888888889,0)" xlink:href="#ae"/><use transform="matrix(0.022222222222222223,0,0,0.022222222222222223,31.533333333333328,0)" xlink:href="#G"/><use transform="matrix(0.022222222222222223,0,0,0.022222222222222223,42.82222222222222,0)" xlink:href="#F"/><use transform="matrix(0.022222222222222223,0,0,0.022222222222222223,52.17777777777778,0)" xlink:href="#O"/><use transform="matrix(0.022222222222222223,0,0,0.022222222222222223,59.711111111111116,0)" xlink:href="#R"/><use transform="matrix(0.022222222222222223,0,0,0.022222222222222223,70.73333333333333,0)" xlink:href="#ae"/><use transform="matrix(0.022222222222222223,0,0,0.022222222222222223,88.77777777777777,0)" xlink:href="#M"/><use transform="matrix(0.022222222222222223,0,0,0.022222222222222223,100.8,0)" xlink:href="#O"/><use transform="matrix(0.022222222222222223,0,0,0.022222222222222223,108.33333333333334,0)" xlink:href="#af"/><use transform="matrix(0.022222222222222223,0,0,0.022222222222222223,118.26666666666667,0)" xlink:href="#L"/></g><g id="q"><use transform="matrix(0.022222222222222223,0,0,0.022222222222222223,0,0)" xlink:href="#I"/><use transform="matrix(0.022222222222222223,0,0,0.022222222222222223,11.977777777777778,0)" xlink:href="#M"/><use transform="matrix(0.022222222222222223,0,0,0.022222222222222223,24,0)" xlink:href="#E"/><use transform="matrix(0.022222222222222223,0,0,0.022222222222222223,35.955555555555556,0)" xlink:href="#R"/><use transform="matrix(0.022222222222222223,0,0,0.022222222222222223,46.97777777777777,0)" xlink:href="#O"/><use transform="matrix(0.022222222222222223,0,0,0.022222222222222223,54.26666666666666,0)" xlink:href="#G"/><use transform="matrix(0.022222222222222223,0,0,0.022222222222222223,65.55555555555554,0)" xlink:href="#E"/><use transform="matrix(0.022222222222222223,0,0,0.022222222222222223,77.51111111111109,0)" xlink:href="#aa"/><use transform="matrix(0.022222222222222223,0,0,0.022222222222222223,86.57777777777775,0)" xlink:href="#R"/><use transform="matrix(0.022222222222222223,0,0,0.022222222222222223,97.59999999999998,0)" xlink:href="#O"/></g><path d="M376-109c57 1 96-12 130-32l28 112C494 1 420 14 351 14 136 14 41-127 38-350c-3-258 153-398 418-356 28 4 50 12 68 19l-27 116c-35-16-76-21-131-21-127 0-187 96-184 242 2 141 56 237 194 241" id="ag"/><path d="M557-399c-51 0-73 31-86 71V0H341v-272c-3-78 0-124-67-127-48-2-73 31-87 66V0H57v-500h101l15 66h4c32-41 75-82 150-80 72 1 105 28 126 85 29-48 73-83 146-85 130-3 157 84 156 214V0H625v-281c-3-70-2-118-68-118" id="ah"/><path d="M291-90c49 0 97-19 123-38l43 85c-40 32-117 57-191 57C103 14 34-89 33-250c-2-167 81-264 240-264 129 0 199 68 200 202 0 33-4 65-10 95H163c5 84 39 127 128 127zm61-208c5-67-19-112-81-112-71-1-98 47-105 112h186" id="ai"/><path d="M338-514c121 0 155 79 155 203V0H363v-284c-1-72-12-113-77-115-52-1-86 36-99 75V0H57v-500h103l15 66h4c32-43 81-80 159-80" id="aj"/><g id="r"><use transform="matrix(0.022222222222222223,0,0,0.022222222222222223,0,0)" xlink:href="#ag"/><use transform="matrix(0.022222222222222223,0,0,0.022222222222222223,11.622222222222222,0)" xlink:href="#A"/><use transform="matrix(0.022222222222222223,0,0,0.022222222222222223,23.555555555555557,0)" xlink:href="#ah"/><use transform="matrix(0.022222222222222223,0,0,0.022222222222222223,41.44444444444444,0)" xlink:href="#ah"/><use transform="matrix(0.022222222222222223,0,0,0.022222222222222223,59.33333333333333,0)" xlink:href="#ai"/><use transform="matrix(0.022222222222222223,0,0,0.022222222222222223,70.62222222222222,0)" xlink:href="#aj"/><use transform="matrix(0.022222222222222223,0,0,0.022222222222222223,82.73333333333333,0)" xlink:href="#C"/></g><path d="M321-110c92-2 118-51 119-148v-442h130v452C568-81 489 12 323 12 146 12 57-69 57-231v-469h137v442c-2 95 32 150 127 148" id="ak"/><path d="M177-434c23-61 95-96 173-66l-17 122c-64-28-134-1-146 55V0H57v-500h101l15 66h4" id="al"/><g id="s"><use transform="matrix(0.022222222222222223,0,0,0.022222222222222223,0,0)" xlink:href="#ak"/><use transform="matrix(0.022222222222222223,0,0,0.022222222222222223,13.933333333333334,0)" xlink:href="#B"/><use transform="matrix(0.022222222222222223,0,0,0.022222222222222223,23.311111111111114,0)" xlink:href="#ai"/><use transform="matrix(0.022222222222222223,0,0,0.022222222222222223,34.6,0)" xlink:href="#al"/></g><g id="t"><use transform="matrix(0.022222222222222223,0,0,0.022222222222222223,0,0)" xlink:href="#ad"/><use transform="matrix(0.022222222222222223,0,0,0.022222222222222223,7.0888888888888895,0)" xlink:href="#D"/><use transform="matrix(0.022222222222222223,0,0,0.022222222222222223,13.044444444444444,0)" xlink:href="#S"/><use transform="matrix(0.022222222222222223,0,0,0.022222222222222223,20.6,0)" xlink:href="#F"/><use transform="matrix(0.022222222222222223,0,0,0.022222222222222223,29.955555555555556,0)" xlink:href="#O"/><use transform="matrix(0.022222222222222223,0,0,0.022222222222222223,37.48888888888889,0)" xlink:href="#aa"/><use transform="matrix(0.022222222222222223,0,0,0.022222222222222223,46.55555555555556,0)" xlink:href="#J"/><use transform="matrix(0.022222222222222223,0,0,0.022222222222222223,58.711111111111116,0)" xlink:href="#R"/><use transform="matrix(0.022222222222222223,0,0,0.022222222222222223,69.73333333333333,0)" xlink:href="#ae"/><use transform="matrix(0.022222222222222223,0,0,0.022222222222222223,87.77777777777777,0)" xlink:href="#G"/></g><g id="u"><use transform="matrix(0.022222222222222223,0,0,0.022222222222222223,0,0)" xlink:href="#Q"/><use transform="matrix(0.022222222222222223,0,0,0.022222222222222223,10.711111111111112,0)" xlink:href="#R"/><use transform="matrix(0.022222222222222223,0,0,0.022222222222222223,21.733333333333334,0)" xlink:href="#S"/><use transform="matrix(0.022222222222222223,0,0,0.022222222222222223,29.28888888888889,0)" xlink:href="#K"/><use transform="matrix(0.022222222222222223,0,0,0.022222222222222223,39.31111111111112,0)" xlink:href="#T"/><use transform="matrix(0.022222222222222223,0,0,0.022222222222222223,51.466666666666676,0)" xlink:href="#R"/><use transform="matrix(0.022222222222222223,0,0,0.022222222222222223,62.488888888888894,0)" xlink:href="#S"/></g><g id="v"><use transform="matrix(0.022222222222222223,0,0,0.022222222222222223,0,0)" xlink:href="#U"/><use transform="matrix(0.022222222222222223,0,0,0.022222222222222223,6.222222222222222,0)" xlink:href="#V"/><use transform="matrix(0.022222222222222223,0,0,0.022222222222222223,18.333333333333332,0)" xlink:href="#W"/><use transform="matrix(0.022222222222222223,0,0,0.022222222222222223,30.44444444444444,0)" xlink:href="#W"/><use transform="matrix(0.022222222222222223,0,0,0.022222222222222223,42.55555555555556,0)" xlink:href="#X"/><use transform="matrix(0.022222222222222223,0,0,0.022222222222222223,48.77777777777778,0)" xlink:href="#L"/></g><g id="w"><use transform="matrix(0.022222222222222223,0,0,0.022222222222222223,0,0)" xlink:href="#P"/><use transform="matrix(0.022222222222222223,0,0,0.022222222222222223,6.488888888888889,0)" xlink:href="#R"/><use transform="matrix(0.022222222222222223,0,0,0.022222222222222223,17.511111111111113,0)" xlink:href="#F"/><use transform="matrix(0.022222222222222223,0,0,0.022222222222222223,26.866666666666667,0)" xlink:href="#O"/><use transform="matrix(0.022222222222222223,0,0,0.022222222222222223,34.4,0)" xlink:href="#aa"/><use transform="matrix(0.022222222222222223,0,0,0.022222222222222223,43.46666666666667,0)" xlink:href="#J"/><use transform="matrix(0.022222222222222223,0,0,0.022222222222222223,55.62222222222223,0)" xlink:href="#R"/><use transform="matrix(0.022222222222222223,0,0,0.022222222222222223,66.64444444444445,0)" xlink:href="#ae"/><use transform="matrix(0.022222222222222223,0,0,0.022222222222222223,84.6888888888889,0)" xlink:href="#G"/></g><g id="x"><use transform="matrix(0.022222222222222223,0,0,0.022222222222222223,0,0)" xlink:href="#G"/><use transform="matrix(0.022222222222222223,0,0,0.022222222222222223,11.28888888888889,0)" xlink:href="#ae"/><use transform="matrix(0.022222222222222223,0,0,0.022222222222222223,29.333333333333336,0)" xlink:href="#R"/><use transform="matrix(0.022222222222222223,0,0,0.022222222222222223,40.355555555555554,0)" xlink:href="#D"/><use transform="matrix(0.022222222222222223,0,0,0.022222222222222223,46.31111111111111,0)" xlink:href="#P"/></g><g id="y"><use transform="matrix(0.022222222222222223,0,0,0.022222222222222223,0,0)" xlink:href="#K"/><use transform="matrix(0.022222222222222223,0,0,0.022222222222222223,10.022222222222222,0)" xlink:href="#D"/><use transform="matrix(0.022222222222222223,0,0,0.022222222222222223,15.977777777777778,0)" xlink:href="#O"/><use transform="matrix(0.022222222222222223,0,0,0.022222222222222223,23.26666666666667,0)" xlink:href="#G"/><use transform="matrix(0.022222222222222223,0,0,0.022222222222222223,34.044444444444444,0)" xlink:href="#Z"/><use transform="matrix(0.022222222222222223,0,0,0.022222222222222223,45.48888888888889,0)" xlink:href="#O"/></g></defs></g></svg>